<svg width="70" height="70" viewBox="0 0 70 70" fill="none" xmlns="http://www.w3.org/2000/svg">
<path d="M36.2633 69.0576C16.078 69.0031 0.927321 53.742 0.953219 34.9796C0.977823 16.0293 16.3188 0.851108 35.1574 0.957403C53.8406 1.0637 68.0783 15.7791 68.986 32.9587C69.5182 43.0399 66.2486 51.7807 59.1653 58.9647C52.5482 65.6756 44.3824 68.9059 36.2633 69.0576ZM37.0596 54.9061C37.0778 54.9086 37.0959 54.9099 37.1153 54.9125C37.1334 54.8814 37.1542 54.8516 37.1684 54.8192C38.1202 52.6985 39.1419 50.6089 40.1273 48.5037C40.1804 48.3897 40.1934 48.2769 40.1934 48.155C40.1921 46.9624 40.1934 45.7699 40.1921 44.5773C40.1895 40.4292 40.1934 36.2811 40.1843 32.133C40.1752 28.4956 40.2257 24.857 40.1532 21.2196C40.1506 21.0666 40.2011 21.0277 40.3449 21.0303C40.7204 21.0381 41.0946 21.0277 41.4702 21.0355C41.61 21.0381 41.6877 20.9992 41.7395 20.8631C41.847 20.5753 41.9726 20.294 42.0917 20.0114C42.4478 19.1689 42.8013 18.325 43.1613 17.4837C43.2261 17.3333 43.1989 17.275 43.0331 17.2906C42.9736 17.2957 42.9127 17.2919 42.8531 17.2919C37.5414 17.2919 32.2283 17.2919 26.9165 17.2919C26.7961 17.2919 26.6743 17.3048 26.5565 17.2893C26.3636 17.2646 26.2703 17.3502 26.2082 17.5226C26.1343 17.7274 26.0398 17.9231 25.9518 18.1228C25.5607 19.0159 25.1683 19.9077 24.776 20.8009C24.6737 21.0329 24.675 21.0329 24.9171 21.0342C25.0971 21.0355 25.2784 21.0433 25.4571 21.0316C25.6112 21.0226 25.65 21.0848 25.6397 21.2287C25.6203 21.5125 25.6073 21.7977 25.6073 22.0829C25.6047 23.9949 25.606 25.9069 25.606 27.8203C25.606 29.9876 25.606 32.155 25.606 34.3224C25.606 36.2422 25.606 38.162 25.606 40.0818C25.606 41.8732 25.6047 43.666 25.606 45.4575C25.6073 47.3397 25.6125 49.2206 25.6151 51.1028C25.6164 52.1074 25.6151 53.1133 25.6164 54.1179C25.6164 54.2022 25.5892 54.2942 25.6475 54.3746C25.7226 54.3551 25.7303 54.2877 25.7536 54.2372C26.3014 53.0524 26.8608 51.8741 27.4267 50.6983C28.113 49.2724 28.7631 47.8297 29.4558 46.4063C29.6928 45.9202 29.8301 45.4341 29.7925 44.8962C29.777 44.6719 29.7796 44.4464 29.7796 44.2221C29.7783 40.3138 29.7796 36.4068 29.7796 32.4985C29.7796 29.0401 29.7796 25.5829 29.7796 22.1244C29.7796 21.8249 29.786 21.5242 29.7783 21.2248C29.7744 21.0757 29.8288 21.0316 29.9738 21.0329C30.4542 21.0394 30.9346 21.042 31.4138 21.0316C31.5808 21.0277 31.6235 21.0925 31.6067 21.2416C31.564 21.6305 31.5743 22.0207 31.5743 22.4109C31.5743 24.5484 31.5743 26.686 31.5743 28.8236C31.5743 29.9863 31.5743 31.1491 31.5756 32.3119C31.5756 32.4402 31.5666 32.5711 31.6468 32.6956C31.7271 32.6398 31.7375 32.5685 31.766 32.5102C32.5934 30.7524 33.3976 28.9843 34.2574 27.2421C34.62 26.5084 34.8 25.7747 34.7741 24.9581C34.7352 23.7136 34.756 22.4679 34.7443 21.2235C34.743 21.0757 34.7845 21.0316 34.9347 21.0329C35.5653 21.0407 36.1959 21.0459 36.8253 21.0316C37.0324 21.0264 37.07 21.0977 37.07 21.2883C37.0635 23.5088 37.0661 25.7281 37.0661 27.9486C37.0661 30.0784 37.0661 32.2082 37.0661 34.338C37.0661 36.2279 37.0674 38.1179 37.0661 40.0079C37.0648 41.9108 37.0596 43.8151 37.0583 45.718C37.057 47.6145 37.0583 49.5096 37.0583 51.4061C37.0583 52.4859 37.0583 53.567 37.0583 54.6468C37.0596 54.7311 37.0596 54.8192 37.0596 54.9061ZM43.6897 54.709C43.7894 54.6675 43.7971 54.569 43.8334 54.4925C44.0484 54.0298 44.2542 53.5631 44.4718 53.1016C45.5505 50.8163 46.6304 48.5309 47.713 46.2469C47.8373 45.9838 47.9085 45.7206 47.8956 45.4251C47.8774 45.0064 47.8904 44.5864 47.8917 44.1664C47.893 40.4758 47.8943 36.7853 47.8943 33.0948C47.8943 29.3888 47.893 25.6827 47.8917 21.9766C47.8917 21.7135 47.8982 21.4516 47.893 21.1885C47.8904 21.0705 47.9357 21.029 48.051 21.0316C48.3138 21.0368 48.5767 21.0368 48.8383 21.0316C48.9548 21.029 48.9989 21.0692 48.9898 21.1898C48.9755 21.3842 48.9704 21.58 48.9691 21.7744C48.9678 24.0701 48.9678 26.3645 48.9691 28.6602C48.9691 29.1697 48.973 29.6804 48.9807 30.1899C48.9833 30.3195 48.9859 30.453 49.083 30.6034C49.1374 30.4945 49.1776 30.418 49.2151 30.3376C49.8768 28.926 50.5411 27.5156 51.1976 26.1014C51.5253 25.3949 51.8723 24.6988 52.2219 24.0027C52.4356 23.5762 52.6933 23.151 52.8098 22.7038C52.929 22.2462 52.8513 21.7355 52.8396 21.2481C52.8357 21.0601 52.9044 21.0264 53.0714 21.029C53.6567 21.0381 54.242 21.0277 54.8273 21.0355C54.9788 21.0381 55.0539 20.9876 55.1109 20.8476C55.5784 19.7263 56.0497 18.6063 56.5276 17.4889C56.5988 17.323 56.5612 17.2828 56.389 17.2828C52.4576 17.2867 48.5249 17.288 44.5935 17.2854C44.4498 17.2854 44.3786 17.3385 44.3255 17.4668C44.1804 17.8207 44.0238 18.1694 43.871 18.5207C43.5407 19.2765 43.2105 20.0335 42.8803 20.7892C42.7754 21.0277 42.7767 21.0303 43.0461 21.0316C43.2041 21.0329 43.362 21.0446 43.5187 21.029C43.7259 21.007 43.7816 21.0796 43.7803 21.2883C43.7725 23.479 43.7751 25.6684 43.7751 27.8591C43.7751 30.0187 43.7751 32.1796 43.7751 34.3392C43.7751 36.2215 43.7751 38.1049 43.7751 39.9872C43.7751 41.8849 43.7738 43.7814 43.7751 45.6791C43.7764 47.516 43.6055 49.3489 43.6392 51.187C43.6599 52.2746 43.6405 53.3622 43.643 54.4498C43.6443 54.5366 43.612 54.6312 43.6897 54.709ZM18.774 54.3279C18.7921 54.3033 18.8128 54.2812 18.8245 54.2553C19.3684 53.0524 19.9213 51.8546 20.5001 50.6685C20.9935 49.6587 21.4571 48.6334 21.9362 47.6171C22.0009 47.4784 22.0411 47.3423 22.0411 47.1867C22.0372 46.2715 22.0385 45.3563 22.0385 44.4425C22.0385 40.5277 22.0385 36.6129 22.0385 32.6982C22.0385 29.1878 22.0527 25.6775 22.0268 22.1685C22.0217 21.4011 22.1408 20.7063 22.5034 20.0231C22.9333 19.2142 23.2933 18.3691 23.6779 17.5368C23.7258 17.4318 23.8514 17.2841 23.5717 17.2854C22.5966 17.2906 21.6215 17.2841 20.6465 17.2737C20.4975 17.2724 20.425 17.3204 20.3603 17.4578C19.8281 18.5765 19.3088 19.7016 18.7999 20.8307C18.7118 21.0251 18.6704 21.2235 18.6704 21.4374C18.6743 23.5749 18.673 25.7112 18.673 27.8488C18.673 30.0162 18.673 32.1822 18.673 34.3496C18.673 36.2461 18.673 38.1438 18.673 40.0403C18.673 41.8473 18.673 43.653 18.673 45.4601C18.673 47.4239 18.6821 49.3891 18.6665 51.3529C18.6587 52.2824 18.7287 53.2105 18.7183 54.14C18.7157 54.2035 18.7015 54.2748 18.774 54.3279Z" fill="#292826"/>
<path d="M4.04291 50.7476H65.9688" stroke="#676767" stroke-width="0.656712" stroke-miterlimit="10"/>
<path d="M0.625488 33.4798H69.3873" stroke="#676767" stroke-width="3.28356" stroke-miterlimit="10"/>
<path d="M1.24573 27.7374H68.7554" stroke="#676767" stroke-width="4.59699" stroke-miterlimit="10"/>
<path d="M0.953186 39.2224H69.1284" stroke="#676767" stroke-width="1.97014" stroke-miterlimit="10"/>
<path d="M1.85577 44.9843H68.3515" stroke="#676767" stroke-width="1.31342" stroke-miterlimit="10"/>
<path d="M37.0596 54.9061C37.0596 54.818 37.0596 54.7311 37.0596 54.643C37.0596 53.5632 37.0596 52.4821 37.0596 51.4023C37.0596 49.5058 37.0583 47.6106 37.0596 45.7142C37.0609 43.8112 37.0661 41.907 37.0674 40.0041C37.0687 38.1141 37.0674 36.2241 37.0674 34.3341C37.0674 32.2043 37.0674 30.0745 37.0674 27.9448C37.0674 25.7242 37.0648 23.505 37.0713 21.2845C37.0713 21.0939 37.0337 21.0239 36.8265 21.0278C36.1972 21.0421 35.5666 21.0369 34.9359 21.0291C34.787 21.0278 34.7443 21.0719 34.7456 21.2196C34.7572 22.4641 34.7365 23.7111 34.7754 24.9542C34.8013 25.7709 34.6213 26.5046 34.2587 27.2383C33.3988 28.9792 32.5947 30.7486 31.7672 32.5064C31.74 32.5647 31.7284 32.636 31.6481 32.6917C31.5678 32.5686 31.5769 32.4364 31.5769 32.308C31.5756 31.1453 31.5756 29.9825 31.5756 28.8197C31.5756 26.6822 31.5756 24.5446 31.5756 22.407C31.5756 22.0169 31.5639 21.6267 31.608 21.2378C31.6248 21.0874 31.5808 21.0239 31.415 21.0278C30.9346 21.0382 30.4542 21.0356 29.9751 21.0291C29.83 21.0265 29.7744 21.0706 29.7795 21.2209C29.7886 21.5204 29.7808 21.8211 29.7808 22.1206C29.7808 25.579 29.7808 29.0362 29.7808 32.4947C29.7808 36.403 29.7808 40.31 29.7808 44.2183C29.7808 44.4425 29.7782 44.6681 29.7938 44.8923C29.8313 45.4303 29.6941 45.9164 29.4571 46.4025C28.7643 47.8245 28.1143 49.2686 27.4279 50.6945C26.8621 51.8702 26.3027 53.0485 25.7549 54.2333C25.7316 54.2839 25.7238 54.3513 25.6487 54.3708C25.5892 54.2904 25.6176 54.1984 25.6176 54.1141C25.615 53.1095 25.6176 52.1036 25.6163 51.0989C25.6138 49.2167 25.6086 47.3358 25.6073 45.4536C25.606 43.6622 25.6073 41.8694 25.6073 40.078C25.6073 38.1582 25.6073 36.2384 25.6073 34.3186C25.6073 32.1512 25.6073 29.9838 25.6073 27.8164C25.6073 25.9044 25.606 23.9924 25.6086 22.0791C25.6086 21.7939 25.6215 21.5087 25.6409 21.2248C25.6513 21.0809 25.6125 21.0187 25.4584 21.0278C25.2784 21.0382 25.0984 21.0304 24.9184 21.0304C24.6762 21.0291 24.6749 21.0291 24.7772 20.7971C25.1696 19.9039 25.562 19.0121 25.953 18.1189C26.0398 17.9193 26.1356 17.7236 26.2094 17.5188C26.2716 17.3464 26.3648 17.2595 26.5578 17.2854C26.6756 17.301 26.7973 17.288 26.9177 17.288C32.2295 17.288 37.5426 17.288 42.8544 17.288C42.914 17.288 42.9748 17.2919 43.0344 17.2867C43.2001 17.2725 43.2273 17.3295 43.1626 17.4799C42.8026 18.3212 42.4478 19.165 42.093 20.0076C41.9738 20.2915 41.8482 20.5715 41.7408 20.8593C41.689 20.9967 41.6113 21.0356 41.4714 21.0317C41.0959 21.0239 40.7217 21.0343 40.3461 21.0265C40.2024 21.0239 40.1506 21.0628 40.1545 21.2158C40.227 24.8531 40.1765 28.4905 40.1856 32.1292C40.1959 36.2773 40.192 40.4254 40.1933 44.5735C40.1933 45.766 40.1933 46.9586 40.1946 48.1512C40.1946 48.273 40.1817 48.3858 40.1286 48.4999C39.1431 50.6051 38.1227 52.6947 37.1697 54.8154C37.1554 54.8478 37.1347 54.8776 37.1166 54.9087C37.0959 54.9113 37.0777 54.9087 37.0596 54.9061Z" fill="#F8AB1A"/>
<path d="M43.6896 54.7091C43.6119 54.6313 43.6443 54.5367 43.6443 54.4525C43.643 53.3649 43.6612 52.276 43.6404 51.1897C43.6055 49.3516 43.7777 47.5186 43.7764 45.6818C43.7751 43.7841 43.7764 41.8876 43.7764 39.9898C43.7764 38.1076 43.7764 36.2241 43.7764 34.3419C43.7764 32.1823 43.7764 30.0214 43.7764 27.8618C43.7764 25.6711 43.7738 23.4817 43.7816 21.291C43.7829 21.0823 43.7259 21.0097 43.52 21.0317C43.3646 21.0473 43.2053 21.0356 43.0474 21.0343C42.7793 21.033 42.7767 21.0304 42.8816 20.7919C43.2118 20.0362 43.542 19.2804 43.8722 18.5234C44.025 18.1734 44.1817 17.8234 44.3267 17.4695C44.3798 17.3412 44.4498 17.2881 44.5948 17.2881C48.5262 17.2906 52.4589 17.2894 56.3903 17.2855C56.5625 17.2855 56.6001 17.3256 56.5288 17.4916C56.051 18.609 55.5797 19.7277 55.1122 20.8502C55.0539 20.9889 54.9801 21.0408 54.8286 21.0382C54.2433 21.0291 53.658 21.0408 53.0727 21.0317C52.9043 21.0291 52.8357 21.0628 52.8409 21.2508C52.8525 21.7382 52.9302 22.2489 52.8111 22.7065C52.6946 23.1537 52.4369 23.5789 52.2232 24.0054C51.8749 24.7015 51.5265 25.3976 51.1989 26.1041C50.5424 27.5183 49.8781 28.9287 49.2164 30.3403C49.1788 30.4194 49.1387 30.4972 49.0843 30.6061C48.9872 30.4557 48.9846 30.3222 48.982 30.1925C48.9742 29.6831 48.9704 29.1724 48.9704 28.6629C48.9691 26.3672 48.9691 24.0728 48.9704 21.7771C48.9704 21.5826 48.9768 21.3869 48.9911 21.1925C49.0001 21.0732 48.9561 21.033 48.8396 21.0343C48.5767 21.0395 48.3138 21.0395 48.0522 21.0343C47.937 21.0317 47.8917 21.0732 47.8943 21.1912C47.8994 21.453 47.893 21.7162 47.893 21.9793C47.8943 25.6854 47.8956 29.3914 47.8956 33.0975C47.8956 36.788 47.8943 40.4785 47.893 44.1691C47.893 44.5891 47.88 45.009 47.8969 45.4277C47.9098 45.7233 47.8386 45.9864 47.7143 46.2496C46.6317 48.5336 45.5517 50.819 44.4731 53.1043C44.2555 53.5658 44.0509 54.0325 43.8347 54.4952C43.7971 54.5691 43.7894 54.6676 43.6896 54.7091Z" fill="#F8AB1A"/>
<path d="M18.7739 54.3279C18.7001 54.2748 18.7157 54.2035 18.717 54.14C18.7273 53.2106 18.6587 52.2824 18.6652 51.353C18.6807 49.3891 18.6716 47.4252 18.6716 45.4601C18.6716 43.6531 18.6716 41.8473 18.6716 40.0403C18.6716 38.1439 18.6716 36.2461 18.6716 34.3497C18.6716 32.1823 18.6716 30.0162 18.6716 27.8488C18.6716 25.7112 18.6729 23.575 18.6691 21.4374C18.6691 21.2222 18.7105 21.0252 18.7985 20.8307C19.3074 19.7017 19.8267 18.5765 20.3589 17.4578C20.4237 17.3204 20.4962 17.2724 20.6451 17.2737C21.6202 17.2841 22.5953 17.2893 23.5703 17.2854C23.8513 17.2841 23.7257 17.4319 23.6765 17.5369C23.2919 18.3691 22.9319 19.2143 22.502 20.0232C22.1395 20.705 22.019 21.3998 22.0255 22.1685C22.0514 25.6788 22.0372 29.1892 22.0372 32.6982C22.0372 36.613 22.0372 40.5277 22.0372 44.4425C22.0372 45.3577 22.0346 46.2729 22.0397 47.1867C22.041 47.3423 22.0009 47.4784 21.9349 47.6171C21.4544 48.6334 20.9921 49.6587 20.4988 50.6685C19.9199 51.8546 19.367 53.0524 18.8231 54.2554C18.8128 54.2813 18.7921 54.3033 18.7739 54.3279Z" fill="#F8AB1A"/>
<path d="M23.6675 68.1308C22.8413 67.8741 22.0397 67.5526 21.2472 67.2104C19.0005 66.2421 16.8795 65.0482 14.8814 63.6379C11.8875 61.5223 9.28083 59.0075 7.07039 56.0818C4.98556 53.322 3.34748 50.3186 2.15097 47.0753C1.38696 45.0038 0.823671 42.8779 0.471452 40.6963C0.200812 39.0228 0.0389463 37.3428 0.00657315 35.6459C-0.0219152 34.1215 0.0415362 32.6049 0.209877 31.0934C0.467567 28.764 0.954459 26.4812 1.6835 24.2542C2.81915 20.7893 4.43392 17.5641 6.56278 14.5995C8.12317 12.4269 9.90628 10.4579 11.916 8.69495C14.2521 6.64682 16.816 4.93832 19.6079 3.57204C22.2663 2.27057 25.0466 1.3204 27.9459 0.722812C29.1049 0.484297 30.2755 0.314484 31.4526 0.187448C33.4273 -0.0277347 35.406 -0.0510678 37.382 0.0837455C40.7346 0.311891 43.9913 1.01059 47.1458 2.17983C50.8441 3.55 54.2174 5.48406 57.2578 7.99236C60.8487 10.9544 63.7376 14.4945 65.9196 18.6089C67.6328 21.8379 68.8112 25.2524 69.4522 28.8521C69.6671 30.0616 69.807 31.2801 69.9093 32.5038C70.0193 33.8221 70.0167 35.143 69.9675 36.4587C69.8717 39.0474 69.4729 41.5972 68.7943 44.1016C68.0925 46.6954 67.1109 49.1778 65.8406 51.5448C64.4188 54.1944 62.6862 56.625 60.6324 58.8248C56.3682 63.3903 51.2364 66.5817 45.2863 68.4652C44.486 68.718 43.6754 68.937 42.857 69.1263C40.7683 69.6111 38.6549 69.9183 36.5092 70C36.4587 69.9896 36.4082 69.9702 36.3577 69.9715C35.3309 69.9883 34.3053 69.9935 33.2784 69.9469C32.5545 69.9145 31.8333 69.8509 31.1133 69.7693C30.8077 69.7356 30.5021 69.6604 30.19 69.698C30.1434 69.6941 30.0968 69.6889 30.0501 69.685C30.0126 69.6111 29.9427 69.6189 29.8753 69.6085C28.5092 69.4102 27.1586 69.1341 25.8287 68.7634C25.1061 68.5624 24.3887 68.3421 23.6675 68.1308ZM36.2632 69.0576C44.3837 68.9059 52.5482 65.6756 59.1653 58.9648C66.2485 51.7808 69.5195 43.0399 68.986 32.9587C68.0782 15.7791 53.8405 1.06373 35.1573 0.957439C16.3188 0.851144 0.977768 16.0293 0.953164 34.9797C0.927266 53.742 16.0779 69.0032 36.2632 69.0576Z" fill="#F8AB1A"/>
</svg>
